<?xml version="1.0" encoding="UTF-8"?>
<svg xmlns="http://www.w3.org/2000/svg" xmlns:xlink="http://www.w3.org/1999/xlink" width="89.3333pt" height="88pt" viewBox="0 0 89.3333 88" version="1.1">
<g id="surface1">
<path style=" stroke:none;fill-rule:nonzero;fill:rgb(15.440369%,32.217407%,63.43689%);fill-opacity:1;" d="M 35.035156 62.496094 L 26.339844 62.496094 L 47.882813 19.414063 L 44.660156 12.960938 L 17.007813 68.269531 L 45.457031 68.257813 L 57.121094 68.25 L 54.234375 62.488281 Z M 35.035156 62.496094 "/>
<path style=" stroke:none;fill-rule:nonzero;fill:rgb(15.440369%,32.217407%,63.43689%);fill-opacity:1;" d="M 48.421875 33.484375 L 69.203125 75.039063 L 75.703125 75.039063 L 48.449219 20.53125 L 27.960938 61.496094 L 34.417969 61.496094 Z M 48.421875 33.484375 "/>
<path style=" stroke:none;fill-rule:nonzero;fill:rgb(15.440369%,32.217407%,63.43689%);fill-opacity:1;" d="M 58.742188 69.25 L 58.738281 69.25 L 58.738281 69.253906 L 49.25 69.257813 L 16.511719 69.273438 L 13.632813 75.035156 L 68.082031 75.035156 L 48.421875 35.722656 L 45.199219 42.167969 Z M 58.742188 69.25 "/>
<path style=" stroke:none;fill-rule:nonzero;fill:rgb(15.440369%,32.217407%,63.43689%);fill-opacity:1;" d="M 49.246094 69.257813 L 58.738281 69.253906 L 58.738281 69.25 Z M 49.246094 69.257813 "/>
<path style=" stroke:none;fill-rule:nonzero;fill:rgb(15.440369%,32.217407%,63.43689%);fill-opacity:1;" d="M 68.082031 75.035156 L 48.421875 35.722656 Z M 68.082031 75.035156 "/>
</g>
</svg>
